<svg width="207" height="76" viewBox="0 0 207 76" fill="none" xmlns="http://www.w3.org/2000/svg">
<path fill-rule="evenodd" clip-rule="evenodd" d="M42.5183 21.3209L35.4702 25.3491L31.2869 22.969L42.5216 16.5372L53.7478 22.9619L49.5884 25.3539L42.5183 21.3209ZM46.6408 39.8276L53.6688 35.7982V30.9874L49.5711 28.6595L42.5187 32.6822L35.46 28.6556L31.3636 31.0007V35.7956L38.3973 39.8249V47.8966L42.5276 50.2516L46.6408 47.8956V39.8276ZM35.468 49.5231L28.398 45.4652V37.3911L24.2778 35.0493V47.8932L35.468 54.2942V49.5231ZM60.7461 47.9027V35.0502C59.2954 35.8824 57.9581 36.6497 56.6015 37.4282V45.4915L49.6374 49.4873V54.2602L60.7461 47.9027ZM32.5743 27.0024L28.4478 29.3759V34.113L24.2847 31.7498V26.9798L28.4008 24.6126L32.5743 27.0024ZM60.7593 26.9781L56.6307 24.6108L55.9442 25.006L52.4724 27.005L56.6745 29.4257V34.0859L60.7593 31.7347V26.9781ZM42.5276 58.3329L38.4281 55.9916V51.2257L42.5255 53.5414L46.5816 51.2364V55.9943L42.5276 58.3329ZM35.4604 41.4351L31.3499 39.0844V43.8625L35.4604 46.2169V41.4351ZM53.6879 39.091V43.8667L49.6219 46.194V41.4123C50.8502 40.7112 52.1335 39.9785 53.5399 39.1755L53.6879 39.091ZM42.5257 29.3881L46.6925 27.0057L42.5145 24.6091L38.3508 27.0118L42.5257 29.3881Z" fill="white" fill-opacity="0.7"/>
<path fill-rule="evenodd" clip-rule="evenodd" d="M168.788 33.108C169.624 33.7951 170.343 34.5136 171.005 35.2763C168.103 38.9441 162.168 39.3312 158.529 36.1334C154.959 32.9954 154.885 26.9729 158.377 23.6793C161.781 20.4692 168.026 20.5755 170.85 23.9288C170.228 24.8278 169.487 25.6368 168.637 26.5114C167.096 25.2834 165.448 24.4047 163.43 24.8296C162.348 25.057 161.452 25.6183 160.766 26.5045C159.194 28.5323 159.303 31.5828 161.034 33.444C162.869 35.4161 165.289 35.3314 168.788 33.108ZM131.247 37.9703H135.071C132.667 32.3784 130.341 26.9752 128.012 21.5638H124.591L121.326 29.1442L117.505 38.0167C118.021 37.9983 118.508 38.0096 118.975 38.0204C119.775 38.0389 120.516 38.056 121.247 37.9204C121.561 37.3679 121.787 36.7916 122.01 36.2242V36.2241C122.256 35.5981 122.498 34.9829 122.849 34.4225H129.719L130.4 36.0038L131.247 37.9703ZM128.381 31.0761H124.203C124.543 29.9387 124.998 28.8938 125.477 27.7933L125.477 27.7932V27.793L125.477 27.7928L125.477 27.7925L125.477 27.7922C125.735 27.199 126 26.5897 126.259 25.9409L128.381 31.0761ZM73.8328 21.7124C74.7293 21.568 75.5937 21.5895 76.4464 21.6107C76.7046 21.6172 76.9618 21.6236 77.2185 21.6253C77.7648 21.6292 78.3117 21.6193 78.8587 21.6094C80.2021 21.5851 81.5458 21.5608 82.8823 21.7403C85.8324 22.1355 87.4839 24.3786 86.8335 27.0303C86.6005 27.981 85.9266 28.6125 85.283 29.2155L85.1773 29.3147C85.26 29.631 85.4639 29.7253 85.652 29.8124C85.6903 29.8302 85.728 29.8476 85.7639 29.8666C87.4091 30.7349 88.0033 32.1428 87.8569 33.9013C87.717 35.582 86.8095 36.7219 85.2405 37.3765C84.275 37.7793 83.261 37.9796 82.2335 37.9971C80.2342 38.0297 78.2341 38.0233 76.2341 38.0169H76.234H76.2339H76.2337H76.2336C75.613 38.0149 74.9925 38.0129 74.372 38.0121C74.2649 38.0121 74.1579 37.9882 74.034 37.9606C73.9717 37.9466 73.9051 37.9318 73.8322 37.9187C73.8328 32.5109 73.8328 27.1448 73.8328 21.7213V21.7124ZM78.9877 34.7411C80.1887 34.753 81.3498 34.7645 82.5076 34.7098C83.5292 34.6615 84.1761 33.9617 84.2265 33.13C84.2798 32.2525 83.7763 31.6112 82.6967 31.4011C81.5525 31.1778 80.4027 31.2041 79.2444 31.2304C78.6561 31.2437 78.0657 31.2571 77.4725 31.238C77.3218 32.2849 77.3542 33.1983 77.3899 34.2031C77.396 34.3759 77.4023 34.5513 77.4076 34.7307C77.9435 34.7307 78.4691 34.7359 78.9872 34.7411H78.9873H78.9875H78.9876H78.9877ZM77.4251 28.129C77.8872 28.129 78.3361 28.1349 78.7757 28.1409C79.7692 28.1542 80.7152 28.1668 81.6564 28.1081C82.6955 28.0431 83.2172 27.4645 83.2623 26.62C83.3097 25.7332 82.8899 25.1355 81.8623 24.941C80.5894 24.7 79.3027 24.7629 78.0037 24.8265C77.811 24.836 77.618 24.8455 77.4246 24.8539C77.4251 25.9937 77.4251 26.9944 77.4251 28.1272V28.129ZM137.691 21.7234H141.095C143.497 24.8296 145.939 27.9891 148.381 31.1486L148.649 31.0912V21.746C149.973 21.6457 151.111 21.6253 152.325 21.7559V37.8896C151.617 38.0666 150.903 38.0404 150.17 38.0134C149.862 38.0021 149.549 37.9906 149.233 37.994C146.688 34.7022 144.141 31.4086 141.594 28.115C141.509 28.1377 141.424 28.1603 141.34 28.1836V37.9558C140.046 38.0439 138.91 38.0655 137.692 37.9413C137.691 32.5514 137.691 27.2103 137.691 21.7234ZM103.852 37.947V28.0976L103.99 28.0499L104.128 28.0024L109.266 34.6396L111.829 37.9511H114.895V21.7187C114.683 21.7125 114.474 21.7044 114.266 21.6963C113.281 21.6582 112.332 21.6213 111.321 21.7902V31.2385L111.243 31.267C111.201 31.2822 111.16 31.2973 111.118 31.3122C108.654 28.1185 106.189 24.9253 103.718 21.7246C102.58 21.6497 101.483 21.6421 100.368 21.7246V37.947H103.852ZM186.503 37.9674H174.031V21.7605H186.388C186.53 22.7675 186.492 23.7308 186.411 24.8777H177.698C177.518 25.7756 177.542 26.5641 177.566 27.3914V27.392C177.574 27.6122 177.58 27.835 177.583 28.0634H185.266C185.498 29.2102 185.427 30.2404 185.311 31.4098H177.672C177.523 32.2478 177.545 33.0131 177.568 33.8191V33.8201C177.577 34.104 177.584 34.3929 177.586 34.6918H186.415C186.598 35.6142 186.563 36.4483 186.526 37.3369C186.518 37.5435 186.51 37.7531 186.503 37.9674ZM95.3355 21.7217C94.1377 21.656 93.0347 21.6351 91.838 21.739V37.9732L91.9762 37.9793C93.1266 38.0308 94.2181 38.0796 95.3355 37.9256V21.7217ZM177.357 46.5273V54.7563C176.889 54.8414 176.46 54.8349 176.024 54.8281C175.776 54.8243 175.526 54.8204 175.265 54.8336V42.6052C175.862 42.496 176.453 42.5288 177.072 42.5631C177.151 42.5676 177.23 42.572 177.311 42.5761C179.423 45.2632 181.538 47.9538 183.652 50.6445L183.833 50.5835V42.6852C184.381 42.4959 184.885 42.5218 185.404 42.5484C185.588 42.5579 185.775 42.5674 185.964 42.5674V54.7831C185.395 54.8608 184.847 54.8338 184.271 54.8055L184.192 54.8017C181.998 52.0106 179.805 49.2219 177.612 46.4333C177.551 46.4555 177.49 46.4784 177.427 46.5012L177.357 46.5273ZM145.423 42.579H143.339V54.7993C144.049 54.8347 144.708 54.866 145.495 54.7628V49.7396H151.389V54.7732C152.159 54.8498 152.825 54.8469 153.525 54.7941V42.5814C152.797 42.5279 152.128 42.4996 151.32 42.6138V47.5023H145.423V42.579ZM155.247 54.8109L160.689 42.4821C161.109 42.3763 161.526 42.3861 161.957 42.3962C162.22 42.4024 162.49 42.4087 162.768 42.3887L166.051 49.8183L168.235 54.7592C167.664 54.8454 167.147 54.8345 166.64 54.8237C166.399 54.8186 166.16 54.8136 165.918 54.819L165.898 54.7715C165.467 53.792 165.053 52.8462 164.622 51.8685H158.825C158.412 52.7982 157.987 53.7576 157.549 54.7464C157.058 54.8612 156.564 54.8449 155.997 54.8262C155.761 54.8184 155.513 54.8103 155.247 54.8109ZM163.8 49.8551L163.028 48.0845L163.011 48.0446L162.969 47.9494L161.719 45.081C161.515 45.5497 161.314 46.0004 161.119 46.4409V46.441C160.603 47.6022 160.117 48.6927 159.694 49.8551H163.8ZM141.196 44.2925L141.226 44.2505C139.077 41.72 134.517 41.6162 131.95 44.0113C129.367 46.4194 129.374 50.8527 131.962 53.324C134.547 55.7928 138.931 55.5671 141.336 52.815C140.985 52.3376 140.549 51.9377 140.119 51.5433L140.033 51.465C137.127 53.3815 135.124 53.4458 133.503 51.703C132.044 50.1338 131.971 47.4518 133.332 45.7786C133.971 44.9927 134.804 44.529 135.791 44.3631C137.389 44.0944 138.676 44.81 139.849 45.7716C140.438 45.3404 140.819 44.8135 141.196 44.2926V44.2925ZM172.173 54.8028H170.049V42.561C170.772 42.4664 171.465 42.4537 172.173 42.5709V54.8028ZM73.8328 47.9172H124.202V49.8557H73.8328V47.9172Z" fill="white" fill-opacity="0.7"/>
</svg>
