<svg width="207" height="76" viewBox="0 0 207 76" fill="none" xmlns="http://www.w3.org/2000/svg">
<path d="M151.548 31.5166L148.095 44.712H146.105L143.313 33.7586L140.582 44.712H138.638L135.121 31.5166H136.934L139.726 42.4877L142.474 31.5166H144.268L147.042 42.5939L149.817 31.5166H151.548Z" fill="white" fill-opacity="0.7"/>
<path d="M153.473 44.2337C152.827 43.8192 152.319 42.8634 152.319 41.9848C152.319 41.2651 152.459 40.6824 152.741 40.2375C153.023 39.7925 153.425 39.4425 153.947 39.1873C154.474 38.9323 155.108 38.7595 155.847 38.6687C156.587 38.5779 157.419 38.6503 158.228 38.8213V38.2178C158.228 37.855 158.171 37.5547 158.054 37.3164C157.937 37.0784 157.771 36.8916 157.554 36.7551C157.347 36.6248 157.099 36.537 156.808 36.4919C156.52 36.4465 156.216 36.4237 155.901 36.4237C155.519 36.4237 155.093 36.4788 154.621 36.5897C154.151 36.7004 153.665 36.8607 153.163 37.0702H153.086V35.4455C153.37 35.3605 153.782 35.2669 154.319 35.165C154.858 35.063 155.387 35.012 155.909 35.012C156.52 35.012 157.05 35.0672 157.503 35.1778C157.955 35.2885 158.346 35.4767 158.678 35.7431C159.004 36.004 159.252 36.3411 159.422 36.7549C159.593 37.169 159.678 37.6816 159.678 38.2941V44.7393H158.228C156.058 44.7397 154.474 44.8746 153.473 44.2337ZM158.228 40.1136C157.804 40.0058 157.295 39.8791 156.657 39.8847C156.053 39.8899 155.579 40.0238 155.227 40.1309C154.808 40.2614 154.469 40.4643 154.211 40.7393C153.952 41.0143 153.823 41.3924 153.823 41.8741C153.823 42.4183 153.974 42.8279 154.273 43.103C154.573 43.378 155.03 43.486 155.646 43.5153C156.486 43.556 158.228 43.5217 158.228 43.5217V40.1136Z" fill="white" fill-opacity="0.7"/>
<path d="M164.171 44.7119H162.67V29.6603H164.171V44.7119Z" fill="white" fill-opacity="0.7"/>
<path d="M168.659 44.7119H167.158V29.6603H168.659V44.7119Z" fill="white" fill-opacity="0.7"/>
<path d="M180.007 39.1847C180.007 37.7835 179.658 36.7014 178.955 35.9418C178.254 35.1823 177.253 34.8008 175.955 34.8008C174.558 34.8008 173.429 35.2655 172.573 36.1916C171.715 37.1211 171.287 38.3732 171.287 39.9547C171.287 41.5502 171.735 42.7814 172.629 43.6486C173.522 44.5156 174.768 44.9492 176.363 44.9492C176.988 44.9492 177.719 44.8001 178.282 44.6301C178.579 44.5399 178.854 44.4116 179.127 44.2729V42.771C178.899 42.8925 178.63 43.0173 178.32 43.1387C177.657 43.4023 176.998 43.5341 176.345 43.5341C175.852 43.5341 175.4 43.4648 174.989 43.326C174.578 43.1873 174.227 42.9791 173.926 42.7017C173.62 42.4208 173.375 42.06 173.194 41.6195C173.019 41.1757 172.929 40.6589 172.929 40.0657H180.007V39.1847ZM172.929 38.8205C172.997 38.0611 173.288 37.4228 173.803 36.9095C174.316 36.3961 175.006 36.1429 175.873 36.1429C176.732 36.1429 177.374 36.3754 177.795 36.8401C178.216 37.3084 178.43 37.9673 178.433 38.8205H172.929Z" fill="white" fill-opacity="0.7"/>
<path d="M186.488 43.3191C186.195 43.3988 185.908 43.4405 185.636 43.4405C185.17 43.4405 184.821 43.385 184.593 43.274C184.366 43.1665 184.186 42.9895 184.055 42.7537C183.914 42.4971 183.831 42.2231 183.806 41.9282C183.782 41.6335 183.772 41.2242 183.772 40.7004V36.5003H186.219V35.0886H183.772V31.877H182.102V35.0886H180.973V36.5003H182.102V41.4565C182.102 42.6671 182.364 43.5445 182.891 44.0926C183.416 44.6405 184.189 44.9145 185.2 44.9145C185.491 44.9145 185.821 44.8868 186.191 44.8347C186.36 44.8105 186.522 44.7828 186.681 44.7481V43.2635C186.623 43.2844 186.557 43.3018 186.488 43.3191Z" fill="white" fill-opacity="0.7"/>
<path fill-rule="evenodd" clip-rule="evenodd" d="M68.4229 25.1434H65.4781V44.1172C66.8171 44.5764 68.4834 44.9494 70.3876 44.9494C75.2666 44.9494 78.093 42.1938 78.093 38.0894C78.093 34.013 75.2365 31.6597 71.4278 31.6597C70.268 31.6597 69.0477 31.9755 68.4229 32.2914V25.1434ZM47.4091 26.2917C46.4278 26.2917 45.5641 27.0667 45.5641 28.0425C45.5641 29.0473 46.4278 29.8516 47.4091 29.8516C48.3914 29.8516 49.2543 29.0473 49.2543 28.0425C49.2543 27.0667 48.3914 26.2917 47.4091 26.2917ZM29.1828 42.0816C28.5407 42.3246 27.8639 42.4526 27.1305 42.4526C24.5712 42.4526 22.7855 40.845 22.7855 38.319C22.7855 35.6497 24.6305 34.1855 27.0108 34.1855C27.7105 34.1855 28.3897 34.3016 29.0497 34.5565C29.3695 33.8019 29.7902 33.1162 30.3002 32.512C29.2064 31.9478 28.1208 31.6595 26.7438 31.6595C22.875 31.6595 19.8105 34.2137 19.8105 38.319C19.8105 42.3954 22.7262 44.9495 26.7438 44.9495C28.0949 44.9495 29.3342 44.6758 30.5166 44.062C29.9802 43.4802 29.531 42.8165 29.1828 42.0816ZM37.2631 31.6595C41.2202 31.6595 44.0768 34.3581 44.0768 38.319C44.0768 42.2519 41.2202 44.9495 37.2631 44.9495C33.336 44.9495 30.4797 42.2519 30.4797 38.319C30.4797 34.3581 33.336 31.6595 37.2631 31.6595ZM33.4545 38.319C33.4545 35.7359 35.0614 34.0994 37.2629 34.0994C39.5249 34.0994 41.1018 35.7359 41.1018 38.319C41.1018 40.8743 39.5249 42.5097 37.2629 42.5097C35.0614 42.5097 33.4545 40.8743 33.4545 38.319ZM45.9517 44.6626H48.8966V31.9463H45.9517V44.6626ZM51.4663 32.7507C53.3114 32.0617 55.5734 31.6595 57.5065 31.6595C60.8692 31.6595 63.0116 32.8939 63.0116 36.4819V44.6626H60.096V36.7407C60.096 34.9036 58.9056 34.2427 57.2688 34.2427C56.2271 34.2427 55.1867 34.3862 54.4123 34.6158V44.6626H51.4663V32.7507ZM68.4229 42.252C68.9884 42.4234 69.7328 42.5096 70.4756 42.5096C73.1835 42.5096 75.1181 41.0748 75.1181 38.1467C75.1181 35.6777 73.3032 34.2137 71.0715 34.2137C69.9114 34.2137 69.0185 34.5014 68.4229 34.8172V42.252ZM84.073 34.1285C85.5301 34.1285 86.6021 34.7591 86.6021 36.1371V37.1999H85.1437C81.335 37.1999 79.0442 38.4624 79.0442 41.0457C79.0442 43.9167 81.544 44.9214 84.9659 44.9214C86.4534 44.9214 88.238 44.7199 89.4872 44.404V35.9934C89.4872 32.8078 87.4345 31.6594 84.5491 31.6594C82.9119 31.6594 81.4244 32.0617 80.2646 32.6924V35.1614C81.3652 34.5587 82.5553 34.1285 84.073 34.1285ZM86.6021 39.0942H85.3526C83.2986 39.0942 81.9598 39.6677 81.9598 40.9595C81.9598 42.28 83.2102 42.7966 84.9951 42.7966C85.4421 42.7966 86.0668 42.7393 86.6021 42.6531V39.0942ZM95.6463 42.6532C94.3078 42.6532 92.8502 42.1076 91.6299 41.2182V43.9166C92.6119 44.5483 94.1592 44.9495 95.7066 44.9495C98.563 44.9495 100.676 43.7442 100.676 41.0748C100.676 38.7783 99.3664 37.6872 96.3608 37.0555C94.8428 36.6544 94.2784 36.2231 94.2784 35.391C94.2784 34.5586 94.9627 33.9559 96.2424 33.9559C97.6405 33.9559 98.771 34.4443 99.9311 35.2475V32.6354C98.8306 31.9755 97.6399 31.6597 96.1528 31.6597C93.4749 31.6597 91.4513 32.9219 91.4513 35.5062C91.4513 37.7165 92.6119 38.7783 95.3493 39.381C97.0452 39.8112 97.8191 40.1842 97.8191 41.2182C97.8191 42.2228 96.9561 42.6532 95.6463 42.6532ZM104.707 38.9509V39.008C104.886 41.2752 106.909 42.5096 108.961 42.5096C110.777 42.5096 112.086 42.1075 113.395 41.2752V43.7733C112.204 44.5764 110.449 44.9494 108.754 44.9494C104.648 44.9494 101.851 42.4234 101.851 38.4052C101.851 34.3581 104.587 31.6595 108.218 31.6595C112.056 31.6595 113.871 34.0423 113.871 37.5148V38.9509H104.707ZM108.129 34.0423C110.033 34.0423 111.044 35.1322 111.104 37.1137H104.796C105.183 35.1905 106.432 34.0423 108.129 34.0423Z" fill="white" fill-opacity="0.7"/>
<path d="M125.019 24.4484H124.323V51.5514H125.019V24.4484Z" fill="white" fill-opacity="0.7"/>
</svg>
