<svg width="208" height="76" viewBox="0 0 208 76" fill="none" xmlns="http://www.w3.org/2000/svg">
<path d="M161.714 37.5052C160.927 36.9899 160.059 36.6235 159.239 36.1654C158.707 35.8678 158.14 35.6043 157.677 35.2265C156.891 34.5852 157.053 33.3256 157.875 32.776C159.054 31.9974 161.007 32.4323 161.217 34.0241C161.217 34.0583 161.251 34.0814 161.285 34.0814H163.067C163.113 34.0814 163.149 34.0469 163.137 34.0012C163.044 32.9019 162.615 31.9858 161.829 31.4018C161.077 30.8408 160.221 30.543 159.308 30.543C154.6 30.543 154.173 35.4784 156.706 37.0358C156.994 37.2189 159.481 38.4556 160.36 38.9938C161.24 39.532 161.518 40.5168 161.135 41.2954C160.788 42.0054 159.886 42.4979 158.985 42.4406C158.001 42.3833 157.238 41.8566 156.971 41.0321C156.925 40.8833 156.902 40.597 156.902 40.471C156.902 40.4366 156.868 40.4023 156.832 40.4023H154.901C154.867 40.4023 154.832 40.4366 154.832 40.471C154.832 41.8566 155.179 42.6238 156.128 43.3224C157.017 43.9865 157.989 44.2613 158.996 44.2613C161.633 44.2613 162.998 42.784 163.275 41.2497C163.517 39.7496 163.067 38.3983 161.714 37.5052Z" fill="white" fill-opacity="0.7"/>
<path d="M76.0573 30.795C76.0226 30.795 75.9994 30.8178 75.9879 30.8408L74.4034 36.0166C74.3803 36.0854 74.2878 36.0854 74.2646 36.0166L72.6801 30.8408C72.6686 30.8064 72.6454 30.795 72.6106 30.795H69.6614C69.6267 30.795 69.592 30.8294 69.592 30.8637V44.0782C69.592 44.1125 69.6267 44.1469 69.6614 44.1469H71.5929C71.6276 44.1469 71.6623 44.1125 71.6623 44.0782V34.0356C71.6623 33.9555 71.778 33.9441 71.8011 34.0128L73.3971 39.2229L73.5128 39.5894C73.5243 39.6237 73.5475 39.6352 73.5822 39.6352H75.0626C75.0973 39.6352 75.1204 39.6122 75.132 39.5894L75.2476 39.2229L76.8438 34.0128C76.8669 33.9326 76.9826 33.9555 76.9826 34.0356V44.0782C76.9826 44.1125 77.0173 44.1469 77.0519 44.1469H78.9835C79.0181 44.1469 79.0528 44.1125 79.0528 44.0782V30.8637C79.0528 30.8294 79.0181 30.795 78.9835 30.795H76.0573Z" fill="white" fill-opacity="0.7"/>
<path d="M132.14 30.795C132.104 30.795 132.081 30.8178 132.07 30.8408L130.486 36.0166C130.463 36.0854 130.37 36.0854 130.347 36.0166L128.762 30.8408C128.751 30.8064 128.728 30.795 128.693 30.795H125.755C125.721 30.795 125.686 30.8294 125.686 30.8637V44.0782C125.686 44.1125 125.721 44.1469 125.755 44.1469H127.688C127.722 44.1469 127.757 44.1125 127.757 44.0782V34.0356C127.757 33.9555 127.873 33.9441 127.896 34.0128L129.491 39.2229L129.607 39.5894C129.618 39.6237 129.641 39.6352 129.676 39.6352H131.156C131.192 39.6352 131.215 39.6122 131.226 39.5894L131.342 39.2229L132.938 34.0128C132.962 33.9326 133.077 33.9555 133.077 34.0356V44.0782C133.077 44.1125 133.112 44.1469 133.147 44.1469H135.077C135.112 44.1469 135.146 44.1125 135.146 44.0782V30.8637C135.146 30.8294 135.112 30.795 135.077 30.795H132.14Z" fill="white" fill-opacity="0.7"/>
<path d="M107.227 30.795H98.1016C98.0669 30.795 98.0322 30.8294 98.0322 30.8637V32.5126C98.0322 32.547 98.0669 32.5813 98.1016 32.5813H101.629V44.0782C101.629 44.1125 101.664 44.1469 101.699 44.1469H103.63C103.665 44.1469 103.7 44.1125 103.7 44.0782V32.5813H107.227C107.262 32.5813 107.296 32.547 107.296 32.5126V30.8637C107.296 30.8294 107.273 30.795 107.227 30.795Z" fill="white" fill-opacity="0.7"/>
<path d="M118.62 44.1468H120.377C120.423 44.1468 120.458 44.1009 120.447 44.0552L116.815 30.7949C116.803 30.7605 116.78 30.7491 116.746 30.7491H114.224C114.19 30.7491 114.167 30.7721 114.155 30.7949L110.523 44.0552C110.512 44.1009 110.547 44.1468 110.593 44.1468H112.351C112.385 44.1468 112.409 44.1239 112.42 44.101L113.473 40.2419C113.484 40.2077 113.507 40.1962 113.542 40.1962H117.428C117.463 40.1962 117.486 40.2191 117.498 40.2419L118.55 44.101C118.562 44.1239 118.597 44.1468 118.62 44.1468ZM114.005 38.3068L115.416 33.1424C115.439 33.0737 115.531 33.0737 115.555 33.1424L116.966 38.3068C116.977 38.3526 116.942 38.3984 116.896 38.3984H114.074C114.028 38.3984 113.993 38.3526 114.005 38.3068Z" fill="white" fill-opacity="0.7"/>
<path d="M148.599 44.1468H150.356C150.402 44.1468 150.436 44.1009 150.425 44.0552L146.793 30.7949C146.782 30.7605 146.759 30.7491 146.724 30.7491H144.203C144.168 30.7491 144.145 30.7721 144.134 30.7949L140.502 44.0552C140.491 44.1009 140.525 44.1468 140.571 44.1468H142.329C142.364 44.1468 142.388 44.1239 142.4 44.101L143.451 40.2419C143.463 40.2077 143.487 40.1962 143.521 40.1962H147.407C147.441 40.1962 147.464 40.2191 147.477 40.2419L148.529 44.101C148.54 44.1239 148.563 44.1468 148.599 44.1468ZM143.983 38.3068L145.395 33.1424C145.418 33.0737 145.509 33.0737 145.532 33.1424L146.944 38.3068C146.955 38.3526 146.921 38.3984 146.875 38.3984H144.052C144.006 38.3984 143.972 38.3526 143.983 38.3068Z" fill="white" fill-opacity="0.7"/>
<path d="M86.8945 42.1888V38.0893C86.8945 38.055 86.9292 38.0207 86.9639 38.0207H92.1105C92.1453 38.0207 92.1801 37.9862 92.1801 37.9519V36.303C92.1801 36.2686 92.1453 36.2343 92.1105 36.2343H86.9639C86.9292 36.2343 86.8945 36.1999 86.8945 36.1655V32.6616C86.8945 32.6272 86.9292 32.5928 86.9639 32.5928H92.8161C92.8509 32.5928 92.8856 32.5584 92.8856 32.5241V30.8752C92.8856 30.8408 92.8509 30.8065 92.8161 30.8065H84.8936C84.8589 30.8065 84.8242 30.8408 84.8242 30.8752V44.0781C84.8242 44.1126 84.8589 44.1469 84.8936 44.1469H93.0591C93.0938 44.1469 93.1285 44.1126 93.1285 44.0781V42.3377C93.1285 42.3033 93.0938 42.269 93.0591 42.269H86.9523C86.9176 42.2576 86.8945 42.2346 86.8945 42.1888Z" fill="white" fill-opacity="0.7"/>
<path d="M179.362 44.0324L172.678 37.1961C172.654 37.1733 172.654 37.1274 172.678 37.1046L178.692 30.921C178.738 30.8752 178.704 30.8065 178.646 30.8065H176.182C176.159 30.8065 176.148 30.8179 176.136 30.8294L171.036 36.074C170.99 36.1198 170.92 36.0854 170.92 36.0281V30.8752C170.92 30.8408 170.885 30.8065 170.851 30.8065H168.919C168.885 30.8065 168.85 30.8408 168.85 30.8752V44.0897C168.85 44.1241 168.885 44.1585 168.919 44.1585H170.851C170.885 44.1585 170.92 44.1241 170.92 44.0897V38.2726C170.92 38.2154 171.002 38.1809 171.036 38.2268L176.818 44.1355C176.831 44.1469 176.854 44.1585 176.865 44.1585H179.328C179.374 44.1469 179.41 44.0668 179.362 44.0324Z" fill="white" fill-opacity="0.7"/>
<path fill-rule="evenodd" clip-rule="evenodd" d="M28.938 32.8331L27.9433 28.0925L29.4238 23.6838L38.9424 27.2107H46.8767L56.3953 23.6838L45.2161 31.8946L45.2177 31.896L56.3953 23.6838L57.8757 28.0925L56.8926 32.8331L57.5056 33.3027L56.5687 34.0126L57.2859 34.5624L56.3491 35.4096L56.9389 35.8333L55.5856 37.4021L57.6442 43.7002L55.7358 50.1356L49.0739 48.3148L47.7903 49.3684L45.1533 51.1663H40.6543L38.0288 49.3684L36.7333 48.3148L30.0829 50.1356L28.1861 43.7002L30.2334 37.4021L28.8802 35.8333L29.47 35.4096L28.5332 34.5624L29.2503 34.0126L28.3019 33.3027L28.938 32.8331ZM44.5403 46.0131H41.2789L40.7234 46.4026L40.4111 48.9676L40.7005 48.7157H45.1184L45.4191 48.9676L45.0955 46.4025L44.5403 46.0131ZM40.5037 42.0513L39.5322 40.0243L37.1957 41.0894L40.5037 42.0513ZM48.6345 41.0892L46.2866 40.0243L45.315 42.0513L48.6345 41.0892Z" fill="white" fill-opacity="0.7"/>
</svg>
