<svg width="206" height="76" viewBox="0 0 206 76" fill="none" xmlns="http://www.w3.org/2000/svg">
<path d="M76.2072 34.1223H71.8227V31.5483H83.7623V34.1223H79.3778V45.1968H76.2072V34.1223ZM86.7661 36.0914C87.1313 35.5844 87.6209 35.2008 88.2339 34.9408C88.8602 34.6811 89.5777 34.5509 90.3869 34.5509V37.3588C90.0478 37.3327 89.8195 37.3197 89.7017 37.3197C88.8276 37.3197 88.1425 37.5667 87.6467 38.0607C87.1507 38.5415 86.9028 39.2695 86.9028 40.2444V45.1968H83.8494V34.7068H86.7661V36.0914ZM101.714 34.7068V45.1968H98.8164V43.9488C98.412 44.4037 97.9291 44.7548 97.3681 45.0018C96.8071 45.2356 96.2003 45.3528 95.5478 45.3528C94.1645 45.3528 93.0687 44.9562 92.2595 44.1634C91.4505 43.3706 91.046 42.1942 91.046 40.6343V34.7068H94.0994V40.1858C94.0994 41.8755 94.8106 42.7206 96.2328 42.7206C96.9636 42.7206 97.5508 42.4867 97.9947 42.0184C98.4381 41.5374 98.6599 40.8294 98.6599 39.8933V34.7068H101.714ZM106.911 45.3528C106.036 45.3528 105.182 45.2488 104.347 45.0409C103.512 44.8196 102.846 44.5469 102.35 44.222L103.368 42.0383C103.838 42.3371 104.405 42.5841 105.071 42.7788C105.736 42.9609 106.389 43.0519 107.028 43.0519C108.32 43.0519 108.966 42.7337 108.966 42.0964C108.966 41.7976 108.79 41.583 108.438 41.4532C108.085 41.3234 107.544 41.2125 106.813 41.1215C105.952 40.9916 105.24 40.842 104.679 40.6734C104.118 40.5045 103.629 40.2052 103.211 39.7765C102.807 39.3475 102.605 38.7367 102.605 37.9435C102.605 37.2809 102.794 36.6959 103.172 36.1888C103.564 35.6687 104.125 35.2658 104.855 34.98C105.599 34.6942 106.473 34.5509 107.478 34.5509C108.222 34.5509 108.959 34.6356 109.69 34.8046C110.434 34.9605 111.048 35.1814 111.53 35.4672L110.512 37.6315C109.586 37.1118 108.575 36.8518 107.478 36.8518C106.826 36.8518 106.337 36.9429 106.011 37.1245C105.684 37.3066 105.521 37.5405 105.521 37.8267C105.521 38.1516 105.697 38.3789 106.049 38.5091C106.402 38.6389 106.963 38.7624 107.733 38.8796C108.594 39.0225 109.299 39.1784 109.847 39.3475C110.395 39.5034 110.871 39.7959 111.276 40.225C111.68 40.6537 111.882 41.2517 111.882 42.0184C111.882 42.6683 111.687 43.2471 111.295 43.7537C110.904 44.2608 110.329 44.6574 109.573 44.9431C108.829 45.2162 107.942 45.3528 106.911 45.3528ZM119.384 44.6898C119.084 44.9107 118.712 45.0797 118.268 45.1968C117.838 45.3006 117.381 45.3528 116.898 45.3528C115.646 45.3528 114.673 45.0342 113.982 44.3973C113.303 43.7604 112.964 42.8242 112.964 41.5898V37.2809H111.339V34.9408H112.964V32.3869H116.017V34.9408H118.64V37.2809H116.017V41.5506C116.017 41.9927 116.128 42.3371 116.35 42.5841C116.585 42.818 116.911 42.9352 117.329 42.9352C117.812 42.9352 118.223 42.8049 118.562 42.5448L119.384 44.6898ZM145.217 31.5483L140.735 45.1968H137.328L134.315 35.9549L131.202 45.1968H127.815L123.314 31.5483H126.602L129.695 41.1414L132.925 31.5483H135.861L138.993 41.2193L142.183 31.5483H145.217ZM149.061 34.5509C150.692 34.5509 151.945 34.9408 152.819 35.7209C153.694 36.4876 154.13 37.6509 154.13 39.2108V45.1968H151.273V43.8903C150.699 44.8651 149.629 45.3528 148.063 45.3528C147.253 45.3528 146.549 45.2162 145.948 44.9431C145.361 44.6704 144.911 44.2932 144.598 43.8122C144.285 43.3314 144.129 42.7855 144.129 42.1743C144.129 41.1999 144.494 40.4328 145.225 39.8739C145.969 39.3149 147.111 39.0355 148.651 39.0355H151.077C151.077 38.3725 150.875 37.8655 150.47 37.5148C150.066 37.1506 149.459 36.9686 148.651 36.9686C148.089 36.9686 147.534 37.0596 146.986 37.2417C146.451 37.4106 145.994 37.6446 145.617 37.9435L144.519 35.8183C145.094 35.4154 145.779 35.1034 146.575 34.8826C147.384 34.6613 148.213 34.5509 149.061 34.5509ZM148.826 43.3052C149.349 43.3052 149.812 43.1884 150.216 42.9546C150.62 42.7076 150.908 42.3501 151.077 41.8822V40.8096H148.983C147.73 40.8096 147.103 41.2193 147.103 42.0383C147.103 42.4282 147.253 42.74 147.553 42.974C147.867 43.1947 148.291 43.3052 148.826 43.3052ZM155.719 30.7297H158.773V45.1968H155.719V30.7297ZM160.432 30.7297H163.486V45.1968H160.432V30.7297ZM175.461 39.9906C175.461 40.0299 175.442 40.3029 175.403 40.8096H167.436C167.58 41.4595 167.918 41.9729 168.453 42.3501C168.989 42.727 169.654 42.9153 170.45 42.9153C170.998 42.9153 171.481 42.8374 171.898 42.6814C172.329 42.5124 172.727 42.2527 173.092 41.9016L174.717 43.6563C173.725 44.7872 172.277 45.3528 170.372 45.3528C169.185 45.3528 168.134 45.1253 167.22 44.6704C166.307 44.2021 165.602 43.5589 165.106 42.74C164.611 41.9211 164.363 40.9916 164.363 39.9518C164.363 38.9251 164.604 38.002 165.087 37.1831C165.583 36.3515 166.255 35.7079 167.103 35.2531C167.964 34.7848 168.923 34.5509 169.981 34.5509C171.012 34.5509 171.944 34.7722 172.779 35.2139C173.615 35.6561 174.267 36.2929 174.736 37.1245C175.22 37.9435 175.461 38.899 175.461 39.9906ZM170 36.8518C169.308 36.8518 168.728 37.0465 168.258 37.4369C167.788 37.8267 167.501 38.3595 167.397 39.0355H172.584C172.479 38.3725 172.192 37.8461 171.723 37.4562C171.252 37.0533 170.679 36.8518 170 36.8518ZM183.111 44.6898C182.811 44.9107 182.44 45.0797 181.996 45.1968C181.565 45.3006 181.108 45.3528 180.625 45.3528C179.373 45.3528 178.401 45.0342 177.709 44.3973C177.03 43.7604 176.691 42.8242 176.691 41.5898V37.2809H175.067V34.9408H176.691V32.3869H179.745V34.9408H182.367V37.2809H179.745V41.5506C179.745 41.9927 179.856 42.3371 180.077 42.5841C180.312 42.818 180.638 42.9352 181.056 42.9352C181.539 42.9352 181.95 42.8049 182.29 42.5448L183.111 44.6898Z" fill="white" fill-opacity="0.7"/>
<path fill-rule="evenodd" clip-rule="evenodd" d="M36.2352 17.9591H49.5019C57.1081 17.9591 63.2743 24.1013 63.2743 31.678V44.8931C63.2743 52.4698 57.1081 58.612 49.5019 58.612H36.2352C28.629 58.612 22.4629 52.4698 22.4629 44.8931V31.678C22.4629 24.1013 28.629 17.9591 36.2352 17.9591ZM43.8113 25.4637C43.3393 25.0711 42.6529 25.0711 42.181 25.4636C38.6906 28.3676 34.7105 28.3449 33.1839 28.3361C33.1077 28.3356 33.0378 28.3353 32.9742 28.3353C32.6336 28.3353 32.3073 28.4714 32.0682 28.7131C31.8293 28.9548 31.6975 29.2818 31.7027 29.6211C31.7755 34.4287 31.9681 37.8592 32.3462 40.3732C32.7241 42.8852 33.3034 44.6057 34.2373 45.9015C35.178 47.2068 36.3878 47.9481 37.6786 48.6594C37.9035 48.7833 38.1327 48.9073 38.3675 49.0342C39.5 49.6465 40.7595 50.3278 42.2549 51.3963C42.6979 51.7129 43.2943 51.7129 43.7373 51.3963C45.2341 50.3266 46.4954 49.6452 47.6296 49.0323C47.8632 48.9062 48.0914 48.7828 48.3152 48.6597C49.6069 47.9485 50.8185 47.2075 51.761 45.9027C52.6969 44.6069 53.2783 42.8863 53.6576 40.3738C54.0372 37.8596 54.2306 34.4288 54.3035 29.6211C54.3086 29.2818 54.177 28.9548 53.9379 28.7131C53.699 28.4714 53.3725 28.3353 53.032 28.3353C52.9678 28.3353 52.8971 28.3356 52.8204 28.3361H52.82C51.2809 28.3448 47.3013 28.3673 43.8113 25.4637ZM34.8613 39.9977C34.5418 37.874 34.3545 34.9647 34.2686 30.861C36.2368 30.798 39.717 30.3926 42.9961 28.0385C46.2791 30.3955 49.7644 30.7989 51.7375 30.8612C51.6514 34.9646 51.4632 37.8736 51.1427 39.9971C50.7895 42.3362 50.2921 43.5987 49.6967 44.4229C49.1078 45.2382 48.3355 45.754 47.085 46.4424C46.8824 46.554 46.6686 46.6692 46.4443 46.7903C45.4808 47.3104 44.3215 47.936 42.9961 48.8247C41.6725 47.9373 40.515 47.312 39.5531 46.7924L39.5526 46.7921C39.3274 46.6705 39.113 46.5547 38.9098 46.4426C37.661 45.7545 36.8904 45.2388 36.3033 44.4241C35.7093 43.5999 35.2133 42.3374 34.8613 39.9977Z" fill="white" fill-opacity="0.7"/>
</svg>
