<svg width="32" height="36" viewBox="0 0 32 36" fill="none" xmlns="http://www.w3.org/2000/svg">
<path d="M12 21.4912C12.8284 21.4912 13.5 20.7521 13.5 19.8403C13.5 18.9286 12.8284 18.1895 12 18.1895C11.1716 18.1895 10.5 18.9286 10.5 19.8403C10.5 20.7521 11.1716 21.4912 12 21.4912Z" fill="#E2A23B"/>
<path d="M20 21.4912C20.8284 21.4912 21.5 20.7521 21.5 19.8403C21.5 18.9286 20.8284 18.1895 20 18.1895C19.1716 18.1895 18.5 18.9286 18.5 19.8403C18.5 20.7521 19.1716 21.4912 20 21.4912Z" fill="#E2A23B"/>
<path d="M9.30017 11.0352C11.4681 10.2884 13.7284 9.91716 16 9.93467C18.2715 9.91716 20.5317 10.2884 22.6996 11.0351" stroke="#E2A23B" stroke-width="2" stroke-linecap="round" stroke-linejoin="round"/>
<path d="M22.6996 24.2427C20.5317 24.9894 18.2715 25.3607 16 25.3432C13.7284 25.3607 11.4682 24.9894 9.30029 24.2427" stroke="#E2A23B" stroke-width="2" stroke-linecap="round" stroke-linejoin="round"/>
<path d="M19.3805 25.0801L20.8837 28.3889C20.9838 28.6112 21.1495 28.7895 21.3536 28.8946C21.5578 28.9998 21.7883 29.0257 22.0076 28.968C25.0749 28.1426 27.7192 26.7036 29.6451 24.8612C29.7922 24.7221 29.8996 24.5391 29.9544 24.3343C30.0092 24.1296 30.0091 23.9117 29.9541 23.707L25.7073 8.12705C25.6645 7.96995 25.5903 7.82535 25.4903 7.70376C25.3902 7.58217 25.2668 7.48666 25.129 7.42417C23.9293 6.88353 22.6884 6.46077 21.421 6.16082C21.1795 6.10258 20.927 6.14462 20.7119 6.27887C20.4969 6.41312 20.3345 6.6301 20.256 6.88811L19.2594 10.1789" stroke="#E2A23B" stroke-width="2" stroke-linecap="round" stroke-linejoin="round"/>
<path d="M12.6195 25.0801L11.1164 28.3889C11.0162 28.6112 10.8505 28.7895 10.6464 28.8946C10.4422 28.9998 10.2117 29.0257 9.99248 28.968C6.92515 28.1426 4.28088 26.7036 2.35497 24.8613C2.2079 24.7221 2.10049 24.5391 2.04567 24.3343C1.99086 24.1296 1.99096 23.9117 2.04598 23.707L6.29271 8.12705C6.33558 7.96995 6.40973 7.82534 6.50977 7.70375C6.60981 7.58216 6.73322 7.48665 6.87102 7.42416C8.07077 6.88353 9.31163 6.46077 10.5791 6.16082C10.8206 6.10258 11.0731 6.14463 11.2881 6.27887C11.5031 6.41312 11.6655 6.6301 11.744 6.88811L12.7406 10.1789" stroke="#E2A23B" stroke-width="2" stroke-linecap="round" stroke-linejoin="round"/>
<path d="M12 21.4912C12.8284 21.4912 13.5 20.7521 13.5 19.8403C13.5 18.9286 12.8284 18.1895 12 18.1895C11.1716 18.1895 10.5 18.9286 10.5 19.8403C10.5 20.7521 11.1716 21.4912 12 21.4912Z" fill="#E2A23B"/>
<path d="M20 21.4912C20.8284 21.4912 21.5 20.7521 21.5 19.8403C21.5 18.9286 20.8284 18.1895 20 18.1895C19.1716 18.1895 18.5 18.9286 18.5 19.8403C18.5 20.7521 19.1716 21.4912 20 21.4912Z" fill="#E2A23B"/>
<path d="M9.30017 11.0352C11.4681 10.2884 13.7284 9.91716 16 9.93467C18.2715 9.91716 20.5317 10.2884 22.6996 11.0351" stroke="#E2A23B" stroke-width="2" stroke-linecap="round" stroke-linejoin="round"/>
<path d="M22.6996 24.2427C20.5317 24.9894 18.2715 25.3607 16 25.3432C13.7284 25.3607 11.4682 24.9894 9.30029 24.2427" stroke="#E2A23B" stroke-width="2" stroke-linecap="round" stroke-linejoin="round"/>
<path d="M19.3805 25.0801L20.8837 28.3889C20.9838 28.6112 21.1495 28.7895 21.3536 28.8946C21.5578 28.9998 21.7883 29.0257 22.0076 28.968C25.0749 28.1426 27.7192 26.7036 29.6451 24.8612C29.7922 24.7221 29.8996 24.5391 29.9544 24.3343C30.0092 24.1296 30.0091 23.9117 29.9541 23.707L25.7073 8.12705C25.6645 7.96995 25.5903 7.82535 25.4903 7.70376C25.3902 7.58217 25.2668 7.48666 25.129 7.42417C23.9293 6.88353 22.6884 6.46077 21.421 6.16082C21.1795 6.10258 20.927 6.14462 20.7119 6.27887C20.4969 6.41312 20.3345 6.6301 20.256 6.88811L19.2594 10.1789" stroke="#E2A23B" stroke-width="2" stroke-linecap="round" stroke-linejoin="round"/>
<path d="M12.6195 25.0801L11.1164 28.3889C11.0162 28.6112 10.8505 28.7895 10.6464 28.8946C10.4422 28.9998 10.2117 29.0257 9.99248 28.968C6.92515 28.1426 4.28088 26.7036 2.35497 24.8613C2.2079 24.7221 2.10049 24.5391 2.04567 24.3343C1.99086 24.1296 1.99096 23.9117 2.04598 23.707L6.29271 8.12705C6.33558 7.96995 6.40973 7.82534 6.50977 7.70375C6.60981 7.58216 6.73322 7.48665 6.87102 7.42416C8.07077 6.88353 9.31163 6.46077 10.5791 6.16082C10.8206 6.10258 11.0731 6.14463 11.2881 6.27887C11.5031 6.41312 11.6655 6.6301 11.744 6.88811L12.7406 10.1789" stroke="#E2A23B" stroke-width="2" stroke-linecap="round" stroke-linejoin="round"/>
</svg>
