<svg width="32" height="36" viewBox="0 0 32 36" fill="none" xmlns="http://www.w3.org/2000/svg">
<path d="M16 23.1421C18.7614 23.1421 21 20.6782 21 17.6389C21 14.5996 18.7614 12.1357 16 12.1357C13.2386 12.1357 11 14.5996 11 17.6389C11 20.6782 13.2386 23.1421 16 23.1421Z" stroke="#E3A338" stroke-width="2" stroke-miterlimit="10"/>
<path d="M21.5 4.98193H10.5C7.18629 4.98193 4.5 7.93849 4.5 11.5856V23.6923C4.5 27.3393 7.18629 30.2959 10.5 30.2959H21.5C24.8137 30.2959 27.5 27.3393 27.5 23.6923V11.5856C27.5 7.93849 24.8137 4.98193 21.5 4.98193Z" stroke="#E3A338" stroke-width="2" stroke-linecap="round" stroke-linejoin="round"/>
<path d="M22.5 12.1357C23.3284 12.1357 24 11.3966 24 10.4849C24 9.57311 23.3284 8.83398 22.5 8.83398C21.6716 8.83398 21 9.57311 21 10.4849C21 11.3966 21.6716 12.1357 22.5 12.1357Z" fill="#E3A338"/>
</svg>
