<svg width="32" height="36" viewBox="0 0 32 36" fill="none" xmlns="http://www.w3.org/2000/svg">
<path d="M26.2813 4.96516L2.99038 12.1953C2.79444 12.2562 2.62003 12.3814 2.49047 12.5542C2.36091 12.727 2.28237 12.9393 2.26534 13.1626C2.24832 13.3858 2.29362 13.6095 2.39519 13.8037C2.49676 13.9979 2.64977 14.1533 2.83376 14.2493L13.5351 19.8283C13.7438 19.9371 13.9119 20.1221 14.0108 20.3518L19.0798 32.1298C19.167 32.3323 19.3082 32.5007 19.4846 32.6125C19.6611 32.7243 19.8643 32.7742 20.0672 32.7554C20.2701 32.7367 20.4629 32.6502 20.6199 32.5076C20.777 32.365 20.8907 32.1731 20.946 31.9574L27.5152 6.32321C27.5635 6.13491 27.5653 5.93586 27.5204 5.74655C27.4755 5.55725 27.3856 5.38453 27.2599 5.24619C27.1342 5.10785 26.9773 5.00888 26.8053 4.95949C26.6333 4.91009 26.4524 4.91205 26.2813 4.96516Z" stroke="#E3A338" stroke-width="2" stroke-linecap="round" stroke-linejoin="round"/>
<path d="M13.8578 19.9966L19.5147 13.7705" stroke="#E3A338" stroke-width="2" stroke-linecap="round" stroke-linejoin="round"/>
</svg>
