<svg width="32" height="36" viewBox="0 0 32 36" fill="none" xmlns="http://www.w3.org/2000/svg">
<path d="M20.638 27.7455H15.3621C15.1281 27.7455 14.9016 27.8358 14.7219 28.0006L9 33.2485V27.7455H6C5.73478 27.7455 5.48043 27.6296 5.29289 27.4231C5.10536 27.2167 5 26.9368 5 26.6449V6.834C5 6.54211 5.10536 6.26216 5.29289 6.05576C5.48043 5.84935 5.73478 5.7334 6 5.7334H26C26.2652 5.7334 26.5196 5.84935 26.7071 6.05576C26.8946 6.26216 27 6.54211 27 6.834V21.727C27 21.8883 26.9678 22.0477 26.9056 22.1938C26.8434 22.3399 26.7528 22.4692 26.6402 22.5725L21.2781 27.4904C21.0984 27.6552 20.8719 27.7455 20.638 27.7455Z" stroke="#E2A23B" stroke-width="2" stroke-linecap="round" stroke-linejoin="round"/>
<path d="M21 12.3369V18.9409" stroke="#E2A23B" stroke-width="2" stroke-linecap="round" stroke-linejoin="round"/>
<path d="M15 12.3369V18.9409" stroke="#E2A23B" stroke-width="2" stroke-linecap="round" stroke-linejoin="round"/>
</svg>
