<svg width="32" height="36" viewBox="0 0 32 36" fill="none" xmlns="http://www.w3.org/2000/svg">
<path d="M20 17.6389L14 13.2363V22.0415L20 17.6389Z" stroke="#E2A23B" stroke-width="2" stroke-linecap="round" stroke-linejoin="round"/>
<path d="M3 17.6389C3 21.7327 3.38427 24.1346 3.67638 25.3691C3.75447 25.7062 3.90442 26.018 4.11382 26.2787C4.32322 26.5393 4.58603 26.7413 4.88049 26.8679C9.0651 28.6378 16 28.5892 16 28.5892C16 28.5892 22.9348 28.6378 27.1195 26.8679C27.4139 26.7413 27.6767 26.5394 27.8861 26.2787C28.0955 26.018 28.2455 25.7062 28.3236 25.3691C28.6157 24.1346 29 21.7327 29 17.6389C29 13.5452 28.6157 11.1433 28.3236 9.90878C28.2455 9.57163 28.0956 9.25981 27.8862 8.99916C27.6768 8.7385 27.414 8.53652 27.1195 8.40994C22.9349 6.64001 16 6.68861 16 6.68861C16 6.68861 9.06518 6.64001 4.88053 8.40992C4.58607 8.5365 4.32325 8.73848 4.11385 8.99913C3.90446 9.25979 3.7545 9.5716 3.67641 9.90875C3.38428 11.1432 3 13.5452 3 17.6389Z" stroke="#E2A23B" stroke-width="2" stroke-linecap="round" stroke-linejoin="round"/>
</svg>
