<svg width="133" height="133" viewBox="0 0 133 133" fill="none" xmlns="http://www.w3.org/2000/svg">
<g clip-path="url(#clip0_2_307)">
<path d="M74.6968 36.8713C75.2256 30.4188 68.7475 27.1267 71.3916 18.9624C74.9612 7.50594 66.8966 0 66.8966 0C66.8966 0 70.5984 3.9505 65.0457 13.9584C61.3439 20.5426 62.4016 26.7317 62.4016 34.3693C62.5338 42.0069 53.4115 45.1673 56.3201 56.6238L65.4423 68.0802L76.1511 56.6238C70.8628 45.5624 74.168 43.3238 74.6968 36.8713ZM58.0387 55.702C56.7167 49.9079 58.832 46.7475 60.9473 43.3238C62.666 40.6901 64.3847 37.9248 64.2525 34.2376C64.2525 32.9208 64.2525 31.604 64.1203 30.4188C63.988 24.4931 63.7236 19.8842 66.6322 14.8802C68.0865 12.2465 69.0119 9.87624 69.4085 7.90099C70.334 10.6663 70.7306 14.2218 69.4085 18.4356C67.6898 23.8347 69.4085 27.3901 70.995 30.5505C72.0527 32.6574 72.8459 34.501 72.7137 36.7396C72.7137 38.1881 72.3171 39.6366 72.0527 40.8218C71.1272 44.6406 70.334 48.3277 73.9036 56.2287L65.5745 65.0515L58.0387 55.702Z" fill="#E2A23B"/>
<path d="M72.1848 40.8218C72.4492 39.505 72.8458 38.1881 72.978 36.7396C73.1102 34.501 72.317 32.6574 71.2593 30.5505C69.8051 27.3901 68.0864 23.8347 69.6729 18.4357C70.9949 14.3535 70.5983 10.798 69.6729 7.901C70.9949 14.8802 65.1778 17.3822 67.5575 27.7852C70.4661 39.9 60.4184 48.0644 65.5744 65.3149L74.0357 56.3604C70.5983 48.5911 71.2593 44.6406 72.1848 40.8218Z" fill="#E2A23B"/>
<path d="M118.986 65.3149C112.376 61.6278 106.162 62.6812 98.494 62.6812C90.8261 62.8129 87.6531 53.7268 76.1511 56.6238L64.7813 65.71L76.2833 76.3763C87.2565 71.109 89.6362 74.4011 96.1143 74.9278C102.592 75.4545 105.898 69.002 114.094 71.6357C125.464 75.1912 133.132 67.1585 133.132 67.1585C133.132 67.1585 129.034 70.8456 118.986 65.3149ZM114.623 69.7921C109.203 68.0803 105.633 69.7921 102.46 71.3723C100.345 72.4258 98.4941 73.2159 96.2465 73.0842C94.6601 72.9525 93.338 72.6892 92.1481 72.2941C88.3141 71.3723 84.6123 70.5822 76.6799 74.1377L67.5577 65.8416L76.9443 58.3357C82.7614 57.0189 85.9344 59.1258 89.3718 61.2327C92.0159 62.9446 94.7923 64.6565 98.494 64.5248C99.8161 64.5248 101.138 64.5248 102.328 64.3931C108.277 64.2614 112.905 63.9981 117.928 66.8951C120.573 68.3436 122.952 69.2654 124.935 69.6605C122.291 70.5822 118.722 70.9773 114.623 69.7921Z" fill="#E2A23B"/>
<path d="M92.0159 72.2941C93.3379 72.5575 94.66 72.9525 96.1143 73.0842C98.3618 73.2159 100.213 72.4258 102.328 71.3723C105.501 69.9238 109.071 68.2119 114.491 69.7921C118.589 71.1089 122.159 70.7139 125.068 69.7921C118.061 71.1089 115.549 65.3149 105.104 67.6852C92.9413 70.7139 84.7445 60.5743 67.5576 65.8416L76.5477 74.2693C84.2157 70.7139 88.1819 71.3723 92.0159 72.2941Z" fill="#E2A23B"/>
<path d="M76.019 76.3762L66.8967 64.9198L56.1879 76.3762C61.4762 87.3059 58.171 89.6762 57.6422 96.1287C57.1134 102.581 63.5915 105.873 60.9474 114.038C57.3778 125.362 65.4424 133 65.4424 133C65.4424 133 61.7406 129.05 67.2933 119.042C70.9951 112.457 69.9374 106.268 69.9374 98.6307C69.8052 90.9931 78.7953 87.8327 76.019 76.3762ZM65.5746 118.12C64.1203 120.753 63.1949 123.124 62.7983 125.099C61.8728 122.334 61.4762 118.778 62.7983 114.564C64.517 109.165 62.7983 105.61 61.2118 102.45C60.1541 100.343 59.3609 98.499 59.4931 96.2604C59.6253 94.6802 59.8897 93.3634 60.2863 92.1782C61.2118 88.3594 62.005 84.6723 58.4354 76.7713L66.7645 67.9485L74.3003 77.298C75.6223 83.0921 73.507 86.2525 71.3917 89.6762C69.673 92.3099 67.9543 95.0753 68.0865 98.7624C68.0865 100.079 68.0865 101.396 68.2188 102.581C68.2188 108.375 68.4832 113.116 65.5746 118.12Z" fill="#E2A23B"/>
<path d="M60.1542 92.0465C59.8898 93.3634 59.4931 94.6802 59.3609 96.1287C59.2287 98.3673 60.022 100.211 61.0796 102.318C62.5339 105.478 64.2526 109.034 62.6661 114.433C61.344 118.515 61.7407 122.07 62.6661 124.967C61.344 117.988 67.1611 115.486 64.7814 105.083C61.8729 92.9683 71.9206 84.804 66.7645 67.5535L58.3033 76.5079C61.7407 84.4089 61.0796 88.2277 60.1542 92.0465Z" fill="#E2A23B"/>
<path d="M56.8489 56.097C45.8757 61.3644 43.496 58.0723 37.0179 57.5456C30.5398 57.0188 27.2346 63.4713 19.0378 60.8376C7.53579 57.2822 0 65.3149 0 65.3149C0 65.3149 3.9662 61.6277 14.0139 67.1584C20.6243 70.8456 26.838 69.7921 34.506 69.7921C42.174 69.6604 45.3469 78.7466 56.8489 75.8495L68.3509 66.7634L56.8489 56.097ZM55.9235 74.006C50.1064 75.3228 46.9334 73.2159 43.496 71.1089C40.8519 69.397 38.0755 67.6852 34.3738 67.8168C33.0517 67.8168 31.7296 67.8168 30.5398 67.9485C24.5905 68.0802 19.9632 68.3436 14.9394 65.4466C12.2952 63.998 9.91551 63.0763 7.93241 62.6812C10.7087 61.7594 14.2783 61.3644 18.5089 62.6812C23.9294 64.3931 27.499 62.6812 30.672 61.101C32.7873 60.0475 34.6382 59.2574 36.8857 59.3891C38.4722 59.5208 39.7942 59.7842 40.9841 60.1792C44.8181 61.101 48.5199 61.8911 56.4523 58.3357L65.3101 66.6317L55.9235 74.006Z" fill="#E2A23B"/>
<path d="M40.9841 60.0475C39.6621 59.7842 38.34 59.3891 36.8857 59.2574C34.6382 59.1258 32.7873 59.9159 30.672 60.9693C27.499 62.4178 23.9295 64.1297 18.509 62.5495C14.4106 61.2327 10.841 61.6277 7.93243 62.5495C14.9394 61.2327 17.4513 67.0267 27.8957 64.6565C40.0587 61.7594 48.2555 71.7673 65.5746 66.6317L56.5845 58.204C48.7843 61.6277 44.8181 60.9693 40.9841 60.0475Z" fill="#E2A23B"/>
<path d="M113.962 19.7524C113.962 19.7524 113.83 25.1515 102.857 28.3118C95.5855 30.4188 91.8837 35.4227 86.5954 40.9534C81.1749 46.4841 72.5815 42.2703 66.3678 52.4099L64.7813 66.895L80.3817 66.3683C84.3479 54.7802 88.4463 55.5703 93.338 51.3564C98.2296 47.1425 96.1143 40.295 103.782 36.3445C114.227 30.6821 113.962 19.7524 113.962 19.7524ZM102.857 34.6326C97.833 37.2663 96.5109 40.9534 95.3211 44.3772C94.5278 46.6158 93.8668 48.4594 92.1481 49.9079C90.9582 50.9614 89.7684 51.6198 88.7107 52.2782C85.4056 54.3851 82.1004 56.3604 79.0596 64.5247L66.8966 64.9198L68.2187 53.0683C71.3916 48.0643 75.0934 47.2742 79.0596 46.3524C82.1004 45.694 85.2734 44.9039 87.9175 42.2703C88.8429 41.3485 89.7684 40.4267 90.5616 39.5049C94.66 35.1594 97.833 31.8673 103.386 30.1554C106.294 29.3653 108.542 28.3118 110.26 27.2584C108.938 29.7604 106.691 32.5257 102.857 34.6326Z" fill="#E2A23B"/>
<path d="M88.7107 52.2781C89.7683 51.6197 90.9582 50.8296 92.148 49.9078C93.8667 48.4593 94.5278 46.484 95.321 44.3771C96.5109 41.085 97.8329 37.3979 102.857 34.6326C106.691 32.6573 108.938 29.892 110.26 27.2583C106.162 33.184 100.345 30.8137 94.7922 39.7682C88.1818 50.4345 75.3578 49.1177 66.7643 64.9197L79.0596 64.5246C82.1003 56.6236 85.2733 54.385 88.7107 52.2781Z" fill="#E2A23B"/>
<path d="M104.443 102.581C102.328 95.3387 97.3042 91.6515 91.7515 86.3842C86.1988 80.9852 90.4294 72.4258 80.2495 66.2367L65.7067 64.6565L66.2356 80.1951C77.8698 84.1456 77.0765 88.2278 81.3071 93.1001C85.5377 97.9723 92.4125 95.8654 96.3787 103.503C101.931 114.038 112.905 113.774 112.905 113.774C112.905 113.774 107.616 113.643 104.443 102.581ZM98.2296 102.581C95.5855 97.5773 91.8837 96.2604 88.4463 95.0753C86.1988 94.2852 84.3479 93.6268 82.8936 91.9149C81.836 90.7298 81.1749 89.5446 80.5139 88.4911C78.3986 85.1991 76.4155 81.907 68.2187 78.8783L67.822 66.7634L79.7206 68.0803C84.7445 71.2407 85.5377 74.9278 86.4632 78.8783C87.1242 81.907 87.9175 85.0674 90.5616 87.701C91.4871 88.6228 92.4125 89.5446 93.3379 90.3347C97.7008 94.4169 101.006 97.5773 102.725 103.108C103.518 106.005 104.576 108.244 105.633 109.955C102.989 108.77 100.213 106.532 98.2296 102.581Z" fill="#E2A23B"/>
<path d="M80.3816 88.4911C81.0426 89.5446 81.8359 90.7297 82.7613 91.9149C84.2156 93.6268 86.1987 94.2852 88.314 95.0753C91.6192 96.2604 95.321 97.5773 98.0973 102.581C100.08 106.4 102.857 108.639 105.501 109.955C99.5516 105.873 101.931 100.079 92.9413 94.5486C82.2325 87.9644 83.5546 75.1911 67.6898 66.6317L68.0864 78.8783C76.0188 82.0387 78.2663 85.199 80.3816 88.4911Z" fill="#E2A23B"/>
<path d="M52.2217 66.2367C48.2555 77.8248 44.1571 77.0347 39.2654 81.2485C34.3738 85.4624 36.4891 92.3099 28.8211 96.2604C18.2445 101.791 18.509 112.721 18.509 112.721C18.509 112.721 18.6412 107.322 29.6143 104.161C36.8857 102.054 40.5875 97.0505 45.8758 91.5198C51.2962 85.9891 59.8897 90.203 66.1034 80.0634L67.6899 65.5782L52.2217 66.2367ZM64.3847 79.5367C61.2117 84.5406 57.51 85.3307 53.5438 86.2525C50.503 86.9109 47.33 87.701 44.6859 90.3347C43.7605 91.2565 42.835 92.1782 42.0418 93.1C37.9434 97.4456 34.7704 100.738 29.2177 102.45C26.3092 103.24 24.0616 104.293 22.343 105.347C23.665 102.713 25.9125 99.9475 29.7465 97.9723C34.7704 95.3386 36.0925 91.6515 37.2823 88.2277C38.0756 85.9891 38.7366 84.1456 40.4553 82.6971C41.6451 81.6436 42.835 80.9852 43.8927 80.3268C47.1978 78.2198 50.503 76.2446 53.5438 68.0802L65.7068 67.6852L64.3847 79.5367Z" fill="#E2A23B"/>
<path d="M43.8926 80.1951C42.8349 80.8535 41.6451 81.6436 40.4552 82.5654C38.7365 84.0139 38.0755 85.9891 37.2823 88.0961C36.0924 91.3881 34.7703 95.0753 29.7465 97.8406C25.9125 99.8159 23.665 102.581 22.3429 105.215C26.4413 99.2891 32.2584 101.659 37.8111 92.705C44.4214 82.0386 57.2455 83.3555 65.8389 67.5535L53.5437 67.9485C50.5029 75.8495 47.1978 78.0881 43.8926 80.1951Z" fill="#E2A23B"/>
<path d="M67.0288 52.2783C55.3946 48.3278 56.1878 44.2456 51.9572 39.3733C47.7266 34.5011 40.8519 36.608 36.8856 28.9704C31.333 18.4357 20.3598 18.6991 20.3598 18.6991C20.3598 18.6991 25.7803 18.8308 28.9532 29.7605C31.0686 37.003 36.0924 40.6902 41.6451 45.9575C47.1978 51.3565 42.9672 59.9159 53.1471 66.105L67.6898 67.6852L67.0288 52.2783ZM53.6759 64.3932C48.652 61.2328 47.8588 57.5456 46.9334 53.5951C46.2723 50.5664 45.4791 47.406 42.835 44.7724C41.9095 43.8506 40.9841 42.9288 40.0586 42.1387C35.6958 38.0565 32.3906 34.8961 30.6719 29.3654C29.8787 26.4684 28.821 24.2298 27.7634 22.5179C30.4075 23.8347 33.1839 26.0733 35.167 29.8922C37.8111 34.8961 41.5129 36.2129 44.9503 37.3981C47.1978 38.1882 49.0487 38.8466 50.5029 40.5585C51.5606 41.7436 52.2216 42.9288 52.8827 43.9823C54.998 47.2743 56.9811 50.5664 65.1779 53.5951L65.5745 65.71L53.6759 64.3932Z" fill="#E2A23B"/>
<path d="M53.0149 43.9823C52.3539 42.9288 51.5606 41.7437 50.6352 40.5585C49.1809 38.8467 47.1978 38.1882 45.0825 37.3981C41.7773 36.213 38.0756 34.8962 35.2992 29.8922C33.3161 26.0734 30.5398 23.8348 27.8956 22.5179C33.8449 26.6001 31.4652 32.3942 40.4553 37.9249C51.164 44.509 49.842 57.2823 65.7068 65.8417L65.3101 53.5952C57.3777 50.5665 55.1302 47.2744 53.0149 43.9823Z" fill="#E2A23B"/>
</g>
<defs>
<clipPath id="clip0_2_307">
<rect width="133" height="133" fill="white"/>
</clipPath>
</defs>
</svg>
